<svg width="32" height="32" viewBox="0 0 32 32" fill="none" xmlns="http://www.w3.org/2000/svg">
<path d="M15.9872 32C13.7349 32 11.6351 31.5884 9.68785 30.7652C7.74055 29.942 6.05035 28.8133 4.61725 27.3791C3.18414 25.9448 2.05632 24.2532 1.23377 22.3044C0.411258 20.3556 0 18.2541 0 16C0 13.763 0.410118 11.6722 1.23035 9.72756C2.05059 7.78294 3.17841 6.09139 4.61383 4.6529C6.04921 3.21444 7.74055 2.07934 9.68785 1.24761C11.6351 0.415868 13.7325 0 15.98 0C17.816 0 19.5368 0.274374 21.1423 0.823122C22.7478 1.37187 24.2183 2.14057 25.5539 3.12923L23.0649 5.61856C22.0661 4.92146 20.9738 4.37818 19.7881 3.98874C18.6024 3.59931 17.333 3.4046 15.98 3.4046C12.4278 3.4046 9.44098 4.61247 7.01954 7.0282C4.59811 9.4439 3.38739 12.4361 3.38739 16.0047C3.38739 19.5733 4.59784 22.5664 7.01874 24.9838C9.43966 27.4012 12.4258 28.6099 15.9772 28.6099C19.5287 28.6099 22.5157 27.4018 24.9385 24.9856C27.3612 22.5693 28.5725 19.5766 28.5725 16.0072C28.5725 15.4163 28.5304 14.8383 28.4461 14.273C28.3618 13.7078 28.2402 13.1603 28.0813 12.6306L30.7948 9.90044C31.1813 10.8499 31.4745 11.8315 31.6745 12.8453C31.8744 13.8592 31.9744 14.9084 31.9744 15.9929C31.9744 18.2518 31.5589 20.3556 30.7278 22.3044C29.8967 24.2532 28.7625 25.9459 27.3252 27.3825C25.8879 28.819 24.1977 29.9478 22.2546 30.7687C20.3116 31.5896 18.2224 32 15.9872 32ZM13.7004 23.3949L7.02757 16.6912L9.38291 14.3122L13.7004 18.6331L29.5973 2.71063L32 5.08958L13.7004 23.3949Z" fill="#37CCF7"/>
</svg>
