<svg width="16" height="16" viewBox="0 0 16 16" fill="none" xmlns="http://www.w3.org/2000/svg">
<path d="M14.8169 0.000111863H1.1831C1.02984 -0.0020038 0.877667 0.0259095 0.735264 0.0822577C0.592861 0.138606 0.463021 0.222285 0.353157 0.328517C0.243293 0.434748 0.155559 0.561451 0.0949633 0.70139C0.0343681 0.841328 0.00209931 0.99176 0 1.1441V14.8559C0.00209931 15.0082 0.0343681 15.1587 0.0949633 15.2986C0.155559 15.4385 0.243293 15.5653 0.353157 15.6715C0.463021 15.7777 0.592861 15.8614 0.735264 15.9177C0.877667 15.9741 1.02984 16.002 1.1831 15.9999H14.8169C14.9702 16.002 15.1223 15.9741 15.2647 15.9177C15.4071 15.8614 15.537 15.7777 15.6468 15.6715C15.7567 15.5653 15.8444 15.4385 15.905 15.2986C15.9656 15.1587 15.9979 15.0082 16 14.8559V1.1441C15.9979 0.99176 15.9656 0.841328 15.905 0.70139C15.8444 0.561451 15.7567 0.434748 15.6468 0.328517C15.537 0.222285 15.4071 0.138606 15.2647 0.0822577C15.1223 0.0259095 14.9702 -0.0020038 14.8169 0.000111863ZM4.85312 13.3919H2.43863V6.19203H4.85312V13.3919ZM3.64588 5.18404C3.31289 5.18404 2.99354 5.05256 2.75808 4.81851C2.52262 4.58447 2.39034 4.26704 2.39034 3.93606C2.39034 3.60507 2.52262 3.28764 2.75808 3.0536C2.99354 2.81956 3.31289 2.68807 3.64588 2.68807C3.82269 2.66814 4.00175 2.68556 4.17133 2.73918C4.3409 2.7928 4.49717 2.88142 4.6299 2.99924C4.76264 3.11706 4.86883 3.26141 4.94155 3.42285C5.01426 3.58429 5.05185 3.75918 5.05185 3.93606C5.05185 4.11294 5.01426 4.28782 4.94155 4.44926C4.86883 4.6107 4.76264 4.75506 4.6299 4.87287C4.49717 4.99069 4.3409 5.07931 4.17133 5.13293C4.00175 5.18656 3.82269 5.20397 3.64588 5.18404ZM13.5614 13.3919H11.1469V9.52798C11.1469 8.55999 10.8008 7.928 9.92354 7.928C9.65204 7.92998 9.38768 8.01462 9.16607 8.17054C8.94445 8.32645 8.77625 8.54613 8.6841 8.79999C8.62112 8.98802 8.59383 9.18604 8.60362 9.38398V13.3839H6.18913V6.18402H8.60362V7.20001C8.82296 6.8217 9.14198 6.51004 9.52631 6.29859C9.91064 6.08713 10.3457 5.98391 10.7847 6.00003C12.3944 6.00003 13.5614 7.03201 13.5614 9.24798V13.3919Z" fill="#94A3B8"/>
</svg>
